<svg width="70" height="75" viewBox="0 0 70 75" fill="none" xmlns="http://www.w3.org/2000/svg">
<path d="M69.3022 48.4979C69.2899 48.4483 69.2899 48.3615 69.2776 48.2251C66.319 47.9026 57.8749 47.7042 50.0348 54.2149C50.0348 54.2149 47.5078 42.5576 35.6737 42.5576C23.8396 42.5576 19.4511 54.2149 19.4511 54.2149C12.8191 47.0345 3.94348 47.5554 0.738416 48.0266C0.738416 48.101 0.726089 48.1879 0.726089 48.2623C0.627471 50.0605 0.67678 50.9162 0.972632 52.0447C1.89717 55.5791 4.74475 59.4732 9.20719 63.2928C16.5172 69.5431 26.4283 74.0572 33.9355 74.5781C41.7633 75.1113 53.3139 70.5104 61.006 63.7888C62.2141 62.7099 63.3482 61.569 64.4083 60.3537C65.1726 59.4607 66.3067 57.923 66.2204 57.923C66.1958 57.923 66.2204 57.8982 66.2697 57.8734C66.3067 57.8486 66.3437 57.8114 66.319 57.7866C66.3067 57.7742 66.3314 57.7369 66.3683 57.7245C66.4053 57.7121 66.43 57.6873 66.4176 57.6625C66.4053 57.6377 66.4176 57.6129 66.467 57.6005C66.5039 57.5881 66.5163 57.5509 66.5039 57.5261C66.4916 57.5013 66.5039 57.4765 66.5286 57.4765C66.5533 57.4765 66.5779 57.4393 66.5779 57.4145C66.5779 57.3897 66.6026 57.3525 66.6272 57.3525C66.6519 57.3525 66.6765 57.3277 66.6765 57.3029C66.7135 57.2037 66.7751 57.1045 66.8368 57.0177C67.0217 56.7324 67.7613 55.4055 67.8599 55.1823C68.5626 53.5825 69.0064 52.1563 69.2159 50.7302C69.2899 50.0481 69.3515 48.7955 69.3022 48.4979ZM38.4843 63.6276C38.25 63.764 38.0898 63.826 38.0528 63.8012C38.0158 63.7888 37.8432 63.64 37.6583 63.5036L37.3255 63.2308L36.9803 63.6028C36.2284 64.4213 36.2037 64.4585 35.9818 64.4709C35.6367 64.5081 35.5627 64.4461 35.1436 63.8136C34.9217 63.4912 34.7491 63.2184 34.7491 63.2184C34.7491 63.2184 34.5889 63.1936 34.404 63.1812L34.0588 63.144L33.8985 63.4788L33.7383 63.8136L33.4548 63.7268C33.2329 63.6524 33.011 63.5656 32.8014 63.4664L32.4316 63.2804V62.5735L35.7106 62.5859L38.9897 62.5983L39.002 62.9331C39.0143 63.33 39.0266 63.3176 38.4843 63.6276ZM44.6478 61.3954C44.4629 62.1022 44.315 62.6727 44.315 62.6975C44.1794 62.7099 44.0561 62.7223 43.9205 62.7099H43.5261L42.996 64.0121C42.7001 64.7189 42.429 65.3762 42.392 65.4754L42.318 65.6491L42.0591 65.2274L41.8003 64.8058V61.3706L41.7016 61.3954C41.4921 61.445 40.0005 61.6434 39.3472 61.7054C36.6475 61.9782 33.9355 61.9162 31.2482 61.5318C30.8167 61.4698 30.4469 61.4202 30.4346 61.4326C30.4223 61.445 30.4346 62.2387 30.4593 63.2184L30.4962 64.9794L30.2867 65.3018C30.1757 65.4754 30.0648 65.6243 30.0648 65.6367C30.0278 65.6739 29.9045 65.4754 29.621 64.905C29.3128 64.3097 29.0909 63.6772 28.9307 63.02L28.8444 62.6603L28.4623 62.6851L28.0801 62.7223L27.9815 62.2635C27.9322 62.0154 27.8706 61.631 27.8459 61.4202L27.8089 61.0233L27.4884 60.7381C27.3035 60.5769 27.1186 60.4157 27.0816 60.3909C27.02 60.3412 26.9953 60.2544 26.9953 60.18V60.0312L28.5362 60.0436L30.0771 60.056L30.1264 60.2172L30.1757 60.3785L30.7058 60.4033C31.0017 60.4157 31.9385 60.4405 32.7768 60.4653L34.3177 60.5025L34.7121 59.8824L35.1189 59.2623H35.6367L35.6243 57.9726L35.612 56.6828L34.934 56.3852C32.7521 55.4179 31.4701 54.3142 30.9893 52.9748C30.8907 52.702 30.8907 52.6028 30.8661 51.3626C30.8537 50.1349 30.8537 50.0233 30.94 49.7504C31.1126 49.1304 31.5934 48.6467 32.2097 48.4855C32.4193 48.4235 32.974 48.4235 35.8832 48.4235L39.3102 48.4359L39.6923 48.6219C40.1484 48.8451 40.358 49.0064 40.6169 49.3536C40.9127 49.7504 40.999 50.0605 40.999 50.817C40.999 51.8959 40.925 52.826 40.8141 53.198C40.6538 53.7065 40.4073 54.1901 40.0991 54.6242C39.4828 55.4179 38.361 56.2116 37.3378 56.5712L37.042 56.6828L37.0543 57.985L37.0666 59.2871L37.3378 59.3119L37.609 59.3367L37.9788 59.8948L38.3363 60.4529H39.9882C40.9004 60.4529 41.7016 60.4653 41.7756 60.4777C41.8989 60.5025 41.9235 60.4901 42.0468 60.2792L42.1947 60.056H43.6124C44.7095 60.056 45.03 60.0684 45.03 60.1056C44.993 60.0932 44.8328 60.7009 44.6478 61.3954Z" fill="white"/>
<path d="M69.2582 47.4824C69.2335 46.9289 69.1842 46.1541 69.1471 45.7728C68.6164 40.189 67.1846 35.626 64.4691 30.7925C64.358 30.608 64.2593 30.4235 64.1975 30.2759C64.1729 30.239 64.1605 30.2021 64.1482 30.1775C64.5308 29.0337 66.0984 24.2493 67.345 18.7762C69.036 11.3475 70.1099 2.66435 66.8266 0.0569404C66.8266 0.0569404 61.1488 -0.36123 53.5454 7.06744C51.4841 9.1214 49.5956 11.3475 47.917 13.7213L47.3862 13.5491C44.3251 12.5529 41.153 11.9379 37.9561 11.7288C36.9933 11.655 33.4015 11.655 32.2289 11.7288C28.6864 11.9625 25.9709 12.4914 22.8852 13.5614C22.7617 13.6106 22.6507 13.6475 22.5396 13.6844C20.7992 11.3229 18.8613 9.1091 16.726 7.07974C8.81404 -0.385829 2.92638 0.0446412 2.92638 0.0446412C-0.554379 2.73815 0.630559 11.8149 2.43265 19.4896C3.61759 24.5691 5.07408 29.0337 5.61717 30.6449C5.58014 30.731 5.53077 30.8293 5.4814 30.9154C2.60546 36.7206 1.05022 42.3167 0.679932 48.2695C3.90148 47.8021 12.7762 47.2733 19.4291 54.4068C19.4291 54.4068 23.8233 42.8456 35.6726 42.8456C47.522 42.8456 50.0523 54.4068 50.0523 54.4068C57.9026 47.9497 66.3576 48.1588 69.3199 48.4663C69.3076 48.2203 69.2829 47.8513 69.2582 47.4824ZM7.95002 26.0081C7.95002 26.0081 3.3337 14.5084 4.51864 7.94068C4.71613 6.83376 5.08642 5.86213 5.66655 5.12418C5.66655 5.12418 10.9 5.64074 19.3427 14.9881C19.3427 14.9881 17.7381 15.7629 15.5904 17.411C15.5904 17.411 15.5781 17.4233 15.5657 17.4233C13.2329 19.2067 10.2458 22.0355 7.95002 26.0081ZM27.5385 43.0916C27.4645 43.2392 27.0942 43.3991 26.6745 43.4605C26.2548 43.522 24.9712 43.4851 24.2429 43.3991C21.6262 43.0547 18.849 42.2552 16.8247 41.2713C15.6891 40.7178 14.8745 40.1644 14.2697 39.5617L13.9241 39.2051L13.8871 38.7377C13.8253 37.9259 13.8377 36.6468 13.9364 36.1918C13.9981 35.8105 14.1339 35.4415 14.3191 35.1094C14.4178 34.9865 14.4178 34.9864 14.8622 34.9864C15.4053 34.9864 15.8619 35.0725 16.6025 35.3062C18.1207 35.7736 20.3795 36.9051 23.132 38.5532C25.4032 39.9061 26.2548 40.5703 26.909 41.4804C27.3534 42.0461 27.6496 42.8456 27.5385 43.0916ZM56.6189 39.0206C56.5818 39.2174 56.0017 39.8077 55.4216 40.2382C53.7183 41.4804 50.6695 42.6365 47.5714 43.19C45.8063 43.5097 44.0413 43.5589 43.5105 43.3007C43.1649 43.1285 43.1155 42.9932 43.239 42.5504C43.4982 41.628 44.3375 40.6194 45.6459 39.6724C46.3124 39.1927 49.0155 37.557 50.2745 36.8682C52.3482 35.7367 54.0268 35.0602 55.1624 34.9004C55.5203 34.8512 55.9523 34.8389 56.0881 34.9004C56.3103 34.9865 56.5572 35.6383 56.6559 36.4254C56.7053 36.8436 56.6806 38.6885 56.6189 39.0206ZM54.5699 17.411L54.5452 17.3987C52.4716 15.7506 50.9164 14.9758 50.9164 14.9758C59.0752 5.62844 64.1235 5.11188 64.1235 5.11188C64.6789 5.86213 65.0369 6.82146 65.2344 7.92838C66.3823 14.4961 61.9264 26.0081 61.9264 26.0081C60.0626 22.6996 57.557 19.7724 54.5699 17.411Z" fill="#FFF624"/>
<path d="M49.1817 32.0535C49.1817 32.0535 45.2605 32.2738 45.7506 29.5192C46.2408 26.7646 49.3042 26.434 50.162 26.5442C51.0198 26.6544 54.4508 27.7563 53.8381 30.0701C53.2254 32.384 52.3677 31.9433 51.8775 32.0535C51.3874 32.1637 49.1817 32.0535 49.1817 32.0535ZM20.2628 32.0535C20.2628 32.0535 16.3416 32.2738 16.8317 29.5192C17.3219 26.7646 20.3853 26.434 21.2431 26.5442C22.1008 26.6544 25.5319 27.7563 24.9192 30.0701C24.3065 32.384 23.4488 31.9433 22.9586 32.0535C22.4684 32.1637 20.2628 32.0535 20.2628 32.0535Z" fill="#F7F39F"/>
</svg>
