<svg width="18" height="10" viewBox="0 0 18 10" fill="none" xmlns="http://www.w3.org/2000/svg">
<path d="M8.46752 9.28252C8.53724 9.35281 8.62019 9.40861 8.71158 9.44669C8.80298 9.48476 8.90101 9.50437 9.00002 9.50437C9.09903 9.50437 9.19706 9.48476 9.28845 9.44669C9.37984 9.40861 9.46279 9.35281 9.53252 9.28252L17.0325 1.78252C17.1024 1.71259 17.1579 1.62957 17.1958 1.5382C17.2336 1.44684 17.2531 1.34891 17.2531 1.25002C17.2531 1.15112 17.2336 1.0532 17.1958 0.961829C17.1579 0.870463 17.1024 0.787446 17.0325 0.717517C16.9626 0.647588 16.8796 0.592117 16.7882 0.554272C16.6968 0.516426 16.5989 0.496948 16.5 0.496948C16.4011 0.496948 16.3032 0.516426 16.2118 0.554272C16.1205 0.592117 16.0374 0.647588 15.9675 0.717517L9.00002 7.69252L2.03252 0.717517C1.89129 0.576289 1.69974 0.496948 1.50002 0.496948C1.30029 0.496948 1.10874 0.576289 0.967517 0.717517C0.826289 0.858744 0.746948 1.05029 0.746948 1.25002C0.746948 1.44974 0.826289 1.64129 0.967517 1.78252L8.46752 9.28252Z" fill="#C1C1C1"/>
</svg>
